<svg xmlns="http://www.w3.org/2000/svg" width="512" height="512" viewBox="0 0 512 512">
  <defs>
    <linearGradient id="g" x1="64" y1="64" x2="448" y2="448" gradientUnits="userSpaceOnUse">
      <stop offset="0" stop-color="#6EE7FF"/>
      <stop offset="1" stop-color="#A78BFA"/>
    </linearGradient>
    <filter id="s" x="-20%" y="-20%" width="140%" height="140%">
      <feDropShadow dx="0" dy="18" stdDeviation="18" flood-color="#000" flood-opacity=".35"/>
    </filter>
  </defs>
  <rect x="52" y="52" width="408" height="408" rx="92" fill="#0B1020"/>
  <rect x="76" y="76" width="360" height="360" rx="78" fill="url(#g)" opacity=".18"/>
  <g filter="url(#s)">
    <path d="M164 168c0-18 14-32 32-32h184c18 0 32 14 32 32v224c0 18-14 32-32 32H196c-18 0-32-14-32-32V168z" fill="rgba(255,255,255,.10)" stroke="rgba(255,255,255,.22)" stroke-width="2"/>
    <path d="M206 182h168c8 0 14 6 14 14v176c0 8-6 14-14 14H206c-8 0-14-6-14-14V196c0-8 6-14 14-14z" fill="rgba(11,16,32,.55)" stroke="rgba(255,255,255,.18)" stroke-width="2"/>
    <path d="M210 214h160" stroke="rgba(110,231,255,.85)" stroke-width="10" stroke-linecap="round"/>
    <path d="M210 254h132" stroke="rgba(167,139,250,.80)" stroke-width="10" stroke-linecap="round"/>
    <path d="M210 294h150" stroke="rgba(110,231,255,.65)" stroke-width="10" stroke-linecap="round"/>
    <path d="M210 334h120" stroke="rgba(167,139,250,.60)" stroke-width="10" stroke-linecap="round"/>
  </g>
</svg>

